<svg width="85" height="200" viewBox="0 0 85 200" fill="none" xmlns="http://www.w3.org/2000/svg">
<path d="M174.525 44.1161L192.917 91.6947L189.719 134.076L156.134 178.057L100.159 194.449L64.5744 190.051L24.5922 158.865L7 127.279V66.906L42.1844 21.7261L95.3607 5.33334L132.544 10.9309L174.525 44.1161ZM174.525 44.1161L164.13 83.2987L174.525 136.475L156.134 176.857M132.944 10.9309L129.346 34.9202M129.346 34.9202L115.352 79.3007L129.346 128.079L132.944 170.46M129.346 34.9202L164.13 82.8987L116.151 78.5007M132.944 170.46L99.5593 194.049M132.944 170.46L84.166 163.263L129.346 127.679L74.17 108.487L114.952 78.9007L74.17 50.9129L129.346 35.3198M99.7587 193.65L84.5653 163.761L73.7707 109.163V50.1809L81.7667 9.53148L132.345 11.7305M42.5843 21.7258L25.7917 84.898L38.1863 135.675L42.5843 172.859L8.19933 128.879M174.126 43.7161L128.546 34.5203L82.1667 9.33141L38.5859 37.7188L7.3998 66.5061M38.586 38.1185L73.3707 50.9129L26.1915 83.698L73.3707 108.887L38.586 137.275L84.166 162.863L42.9841 173.059L99.5587 193.649M7.3998 66.906L25.7916 84.498L7.3998 127.279L37.7863 136.875M164.93 82.8987L192.118 92.0947L174.925 136.875L188.919 134.476M164.13 83.6987L129.346 126.479L174.526 136.875L132.545 170.46L156.534 178.057" stroke="white" stroke-opacity="0.1" stroke-linecap="round" stroke-linejoin="round"/>
</svg>
