<svg width="100" height="100" viewBox="0 0 100 100" fill="none" xmlns="http://www.w3.org/2000/svg">
<path d="M49.9999 1.58594L74.8853 34.4703H25.1144L49.9999 1.58594Z" stroke="white" stroke-width="1.66667" stroke-linecap="round" stroke-linejoin="round"/>
<path d="M50.0029 76.7951L74.8853 34.4714H25.1144L50.0029 76.7951Z" stroke="white" stroke-linecap="round" stroke-linejoin="round"/>
<path d="M50 1.58594L8.81213 27.1627L25.1146 34.4703L50 1.58594Z" stroke="white" stroke-linecap="round" stroke-linejoin="round"/>
<path d="M8.81201 73.7503V27.1641L25.1145 34.4717L8.81201 73.7503Z" stroke="white" stroke-linecap="round" stroke-linejoin="round"/>
<path d="M8.81201 73.7501L49.9983 76.7901L25.1145 34.4714L8.81201 73.7501Z" stroke="white" stroke-linecap="round" stroke-linejoin="round"/>
<path d="M8.81201 73.75L49.9983 76.79V98.4133L8.81201 73.75Z" stroke="white" stroke-linecap="round" stroke-linejoin="round"/>
<path d="M50 1.58594L91.188 27.1627L74.8857 34.4703L50 1.58594Z" stroke="white" stroke-linecap="round" stroke-linejoin="round"/>
<path d="M91.188 73.7503V27.1641L74.8856 34.4717L91.188 73.7503Z" stroke="white" stroke-linecap="round" stroke-linejoin="round"/>
<path d="M91.188 73.7501L50.0017 76.7901L74.8857 34.4714L91.188 73.7501Z" stroke="white" stroke-linecap="round" stroke-linejoin="round"/>
<path d="M91.188 73.75L50.0017 76.79V98.4133L91.188 73.75Z" stroke="white" stroke-linecap="round" stroke-linejoin="round"/>
</svg>
