<svg width="189" height="239" viewBox="0 0 189 239" fill="none" xmlns="http://www.w3.org/2000/svg">
<g clip-path="url(#clip0_110_23)">
<path d="M94.8553 208.658C106.488 206.06 114.042 195.552 111.727 185.187C109.412 174.823 98.1049 168.527 86.4722 171.126C74.8394 173.724 67.2858 184.232 69.6008 194.596C71.9157 204.961 83.2226 211.256 94.8553 208.658Z" stroke="white" stroke-opacity="0.1" stroke-linecap="round" stroke-linejoin="round"/>
<path d="M66.1062 169.731C57.6393 122.441 43.1 75.678 25.2666 31.1192L16.0675 36.6631C33.9013 81.222 48.4393 127.985 56.9062 175.275L66.1062 169.731Z" stroke="white" stroke-opacity="0.1" stroke-linecap="round" stroke-linejoin="round"/>
<path d="M71.0831 162.478C71.912 162.201 72.7647 161.963 73.6398 161.768C81.5769 159.995 89.3692 162.159 94.5303 166.873L103.73 161.329C98.5692 156.614 90.7755 154.451 82.8384 156.223C78.7205 157.143 75.0891 159.006 72.1753 161.487L71.0831 162.478Z" stroke="white" stroke-opacity="0.1" stroke-linecap="round" stroke-linejoin="round"/>
<path d="M86.7497 213.958C98.9862 211.225 106.932 200.171 104.497 189.269C102.062 178.367 90.1679 171.744 77.9314 174.477C65.695 177.21 57.7494 188.264 60.1845 199.166C62.6196 210.069 74.5133 216.691 86.7497 213.958Z" stroke="white" stroke-opacity="0.1" stroke-linecap="round" stroke-linejoin="round"/>
<path d="M66.1055 169.731C68.7702 163.269 74.9016 157.996 82.8381 156.223C90.7752 154.451 98.5681 156.614 103.729 161.328C91.2701 114.93 84.5292 66.4248 81.7085 18.5124C64.6204 30.456 45.8132 34.6568 25.2666 31.1191C43.1 75.678 57.6386 122.441 66.1055 169.731Z" stroke="white" stroke-opacity="0.1" stroke-linecap="round" stroke-linejoin="round"/>
</g>
<defs>
<clipPath id="clip0_110_23">
<rect width="200" height="200" fill="white" transform="translate(-50 43.5972) rotate(-12.5908)"/>
</clipPath>
</defs>
</svg>
