<svg width="98" height="219" viewBox="0 0 98 219" fill="none" xmlns="http://www.w3.org/2000/svg">
<g clip-path="url(#clip0_110_307)">
<path d="M190.509 125.289C201.353 117.115 207.894 110.307 207.894 110.307C207.894 110.307 172.426 55.53 122.664 50.7679C72.9019 46.0057 27.6889 93.062 27.6889 93.062C27.6889 93.062 27.7132 93.0998 27.7616 93.1727C45.4284 79.8552 74.5166 62.9101 105.352 65.861C153.81 70.4983 188.714 122.565 190.509 125.289Z" stroke="white" stroke-opacity="0.1" stroke-linecap="round" stroke-linejoin="round"/>
<path d="M95.6062 167.695C145.369 172.457 190.582 125.401 190.582 125.401C190.582 125.401 155.114 70.6239 105.351 65.8617C55.5893 61.0996 10.3764 108.156 10.3764 108.156C10.3764 108.156 45.8441 162.933 95.6062 167.695ZM97.2072 150.972C116.092 152.78 132.866 138.935 134.673 120.05C136.48 101.166 122.636 84.3914 103.752 82.5842C84.8667 80.777 68.0923 94.6213 66.2851 113.506C64.4779 132.391 78.3221 149.165 97.2072 150.972Z" stroke="white" stroke-opacity="0.1" stroke-linecap="round" stroke-linejoin="round"/>
<path d="M27.689 93.062C27.689 93.062 45.4761 120.533 73.5304 138.258" stroke="white" stroke-opacity="0.1" stroke-linecap="round" stroke-linejoin="round"/>
<path d="M101.473 151.117C84.7888 147.413 73.0973 131.766 74.7671 114.317C76.4369 96.8685 90.8838 83.723 107.967 83.2496C106.594 82.9447 105.188 82.721 103.752 82.5836C84.8665 80.7763 68.0921 94.6207 66.2849 113.505C64.4776 132.39 78.3219 149.165 97.2069 150.972C98.643 151.109 100.066 151.156 101.473 151.117Z" stroke="white" stroke-opacity="0.1" stroke-linecap="round" stroke-linejoin="round"/>
<path d="M120.287 110.79C118.568 112.167 116.333 112.901 113.968 112.675C109.143 112.213 105.606 107.928 106.067 103.103C106.222 101.488 106.806 100.017 107.694 98.7921C106.597 98.4775 105.454 98.2584 104.277 98.1457C93.9382 97.1563 84.7551 104.735 83.7657 115.074C82.7764 125.412 90.3554 134.595 100.694 135.585C111.033 136.574 120.215 128.995 121.205 118.657C121.468 115.909 121.125 113.243 120.287 110.79Z" stroke="white" stroke-opacity="0.1" stroke-linecap="round" stroke-linejoin="round"/>
</g>
<defs>
<clipPath id="clip0_110_307">
<rect width="200" height="200" fill="white" transform="translate(19.0522) rotate(5.46642)"/>
</clipPath>
</defs>
</svg>
