<svg width="587" height="646" viewBox="0 0 587 646" fill="none" xmlns="http://www.w3.org/2000/svg">
<g clip-path="url(#clip0_60_2632)">
<path d="M324.404 472.606C380.562 463.405 430.496 426.783 453.575 371.065C489.358 284.676 447.028 185.094 359.027 148.643C271.026 112.191 170.679 152.674 134.895 239.063C132.343 245.224 130.189 251.452 128.419 257.72L65.8818 325.371C62.1386 329.42 63.5732 335.961 68.6679 338.071L111.239 355.704L94.9401 395.052C87.8228 412.235 95.9821 431.935 113.165 439.053L160.749 458.763L133.838 523.733L278.42 583.621L324.404 472.606Z" stroke="white" stroke-opacity="0.1" stroke-width="1.5" stroke-linecap="round" stroke-linejoin="round"/>
<path d="M63.7789 330.448C63.8434 328.647 64.5194 326.845 65.8818 325.371L128.419 257.72C130.189 251.452 132.343 245.224 134.895 239.063C170.679 152.674 271.026 112.191 359.027 148.642C413.358 171.147 450.28 217.715 462.16 270.386C467.448 199.028 426.2 128.76 355.351 99.413C267.35 62.9617 167.003 103.445 131.219 189.834C128.667 195.995 126.512 202.223 124.743 208.491L62.2056 276.142C60.1879 278.324 59.6749 281.231 60.4284 283.778L63.7789 330.448Z" stroke="white" stroke-opacity="0.1" stroke-width="1.5" stroke-linecap="round" stroke-linejoin="round"/>
<path d="M140.207 450.252L130.162 474.502L133.838 523.731L160.75 458.761L140.207 450.252Z" stroke="white" stroke-opacity="0.1" stroke-width="1.5" stroke-linecap="round" stroke-linejoin="round"/>
<path d="M449.9 321.834C426.821 377.552 376.885 414.174 320.727 423.375L274.743 534.39L278.419 583.619L324.402 472.606C380.561 463.403 430.496 426.781 453.575 371.065C467.266 338.012 469.523 303.026 462.16 270.385C460.88 287.659 456.874 304.998 449.9 321.834Z" stroke="white" stroke-opacity="0.1" stroke-width="1.5" stroke-linecap="round" stroke-linejoin="round"/>
<path d="M274.743 534.391L130.113 474.484L133.838 523.733L278.42 583.621L274.743 534.391Z" stroke="white" stroke-opacity="0.1" stroke-width="1.5" stroke-linecap="round" stroke-linejoin="round"/>
<path d="M160.945 458.842L157.074 409.532L109.49 389.822C105.779 388.285 102.489 386.161 99.6827 383.602L94.94 395.052C87.8227 412.235 95.9826 431.934 113.166 439.051L160.945 458.842Z" stroke="white" stroke-opacity="0.1" stroke-width="1.5" stroke-linecap="round" stroke-linejoin="round"/>
</g>
<defs>
<clipPath id="clip0_60_2632">
<rect width="500" height="500" fill="white" transform="translate(124.342 -8) rotate(22.5)"/>
</clipPath>
</defs>
</svg>
