<svg width="500" height="500" viewBox="0 0 500 500" fill="none" xmlns="http://www.w3.org/2000/svg">
<path d="M66.2546 92.8905C70.7465 88.3987 75.4006 84.1683 80.1981 80.1985C15.923 157.885 20.154 273.185 92.8895 345.922C159.737 412.768 262.535 421.753 339.047 372.877C339.858 373.843 340.718 374.783 341.627 375.692L418.397 452.46C435.158 469.222 462.333 469.223 479.095 452.462L452.46 479.097C435.698 495.858 408.523 495.857 391.762 479.095L314.993 402.327C314.083 401.417 313.223 400.478 312.413 399.512C235.9 448.388 133.102 439.403 66.2546 372.557C-10.9727 295.328 -10.9727 170.118 66.2546 92.8905Z" stroke="white" stroke-opacity="0.1" stroke-width="1.5" stroke-linecap="round" stroke-linejoin="round"/>
<path d="M478.815 452.74L465.498 466.058C448.735 482.82 421.56 482.818 404.798 466.057L328.03 389.288C327.12 388.378 326.26 387.44 325.45 386.473C248.938 435.35 146.139 426.365 79.2918 359.517C2.06436 282.29 2.06436 157.079 79.2918 79.8521C81.269 77.8748 83.2778 75.9481 85.3163 74.0723" stroke="white" stroke-opacity="0.1" stroke-width="1.5" stroke-linecap="round" stroke-linejoin="round"/>
<path d="M305.968 132.84C356.615 183.488 360.762 263.027 318.405 318.403C323.342 314.628 328.087 310.483 332.603 305.967C387.765 250.805 387.765 161.368 332.603 106.206C277.44 51.0434 188.005 51.0434 132.842 106.206C128.327 110.721 124.18 115.466 120.405 120.403C175.782 78.048 255.322 82.1935 305.968 132.84Z" stroke="white" stroke-opacity="0.1" stroke-width="1.5" stroke-linecap="round" stroke-linejoin="round"/>
<path d="M399.51 312.412C448.387 235.9 439.402 133.101 372.555 66.2539C295.327 -10.9736 170.117 -10.9736 92.889 66.2539C15.6614 143.481 15.6614 268.692 92.889 345.92C159.736 412.767 262.535 421.752 339.047 372.875C339.857 373.842 340.717 374.782 341.627 375.69L418.395 452.46C435.157 469.222 462.333 469.222 479.095 452.46C495.857 435.698 495.857 408.522 479.095 391.76L402.325 314.992C401.417 314.082 400.477 313.222 399.51 312.412ZM332.602 106.206C387.765 161.369 387.765 250.805 332.602 305.967C277.44 361.13 188.003 361.13 132.841 305.967C77.6786 250.805 77.6786 161.369 132.841 106.206C188.003 51.0436 277.44 51.0436 332.602 106.206Z" stroke="white" stroke-opacity="0.1" stroke-width="1.5" stroke-linecap="round" stroke-linejoin="round"/>
</svg>
