<svg width="43" height="43" viewBox="0 0 43 43" fill="none" xmlns="http://www.w3.org/2000/svg">
<g clip-path="url(#clip0_60_2651)">
<path d="M16.4348 22.3483C16.5154 22.4985 16.5394 22.6727 16.5025 22.8391C16.4655 23.0056 16.3702 23.1533 16.2337 23.2554L11.569 26.7029C11.5062 26.7592 11.4327 26.8023 11.3528 26.8295C11.2729 26.8567 11.1883 26.8674 11.1042 26.861C11.02 26.8546 10.938 26.8312 10.8632 26.7923C10.7883 26.7533 10.7221 26.6996 10.6685 26.6344L9.40309 24.6414C9.01482 23.8455 8.93354 22.9344 9.1748 22.0823C9.41605 21.2302 9.96292 20.497 10.7108 20.0227C12.3045 18.8477 14.3086 18.9969 15.1868 20.3733L16.4348 22.3483Z" fill="white" fill-opacity="0.5"/>
<path d="M25.7444 31.604C26.9757 33.5256 26.1571 36.42 23.9277 38.0704C21.6983 39.7207 18.8733 39.4956 17.651 37.5653L12.5452 29.5838C12.4713 29.4252 12.4573 29.2452 12.5056 29.0771C12.554 28.9089 12.6615 28.764 12.8084 28.6689L17.4551 25.2388C17.5772 25.1298 17.7372 25.0731 17.9008 25.0809C18.0643 25.0886 18.2182 25.1602 18.3295 25.2803C19.0739 26.3575 20.1701 27.142 21.4298 27.4991C22.7721 27.8931 23.9278 28.7569 24.6856 29.9328L25.7444 31.604Z" fill="white" fill-opacity="0.5"/>
<path d="M21.6414 8.39923L18.5012 13.1723C18.4109 13.3275 18.2679 13.4452 18.0981 13.504C17.9284 13.5627 17.7433 13.5586 17.5763 13.4924L15.4647 12.3866C15.1163 12.1648 14.8187 11.8717 14.5917 11.5265C14.3647 11.1814 14.2134 10.7921 14.1477 10.3842C14.082 9.97639 14.1034 9.55926 14.2106 9.16031C14.3178 8.76135 14.5082 8.38962 14.7694 8.06959C15.2237 7.29653 15.9398 6.71181 16.7881 6.42141C17.6364 6.13102 18.5607 6.15418 19.3934 6.4867L21.5049 7.59245C21.5673 7.63615 21.6203 7.69179 21.6609 7.75614C21.7016 7.82049 21.7291 7.89227 21.7418 7.96732C21.7545 8.04237 21.7521 8.1192 21.7349 8.19334C21.7177 8.26748 21.6859 8.33747 21.6414 8.39923Z" fill="white" fill-opacity="0.5"/>
<path d="M34.036 19.7321C32.4668 22.0656 29.6129 23.0157 27.6061 21.9825L25.81 21.0413C24.579 20.3933 23.624 19.322 23.1211 18.025C22.6672 16.8173 21.8102 15.8034 20.695 15.1547C20.6291 15.107 20.5739 15.0461 20.5328 14.9759C20.4917 14.9058 20.4657 14.8278 20.4562 14.7471C20.4468 14.6663 20.4543 14.5845 20.4781 14.5067C20.5019 14.429 20.5417 14.3571 20.5947 14.2955L23.744 9.51377C23.8378 9.36001 23.983 9.24441 24.1539 9.18746C24.3247 9.13051 24.5102 9.13589 24.6775 9.20264L33.1148 13.6343C35.1476 14.6945 35.5693 17.4334 34.036 19.7321Z" fill="white" fill-opacity="0.5"/>
</g>
<defs>
<clipPath id="clip0_60_2651">
<rect width="30" height="30" fill="white" transform="matrix(0.71909 -0.694917 -0.694917 -0.71909 20.8477 42.4202)"/>
</clipPath>
</defs>
</svg>
