<svg width="16" height="16" viewBox="0 0 16 16" fill="none" xmlns="http://www.w3.org/2000/svg">
<path d="M0.666626 12.6671C11.078 16.7081 14.0254 9.31645 13.9365 5.66701C14.7822 5.43631 15.3333 4.86069 15.3333 4.27019C14.6349 4.63717 14.2698 4.53287 13.9206 4.27019C14.6726 3.75803 14.6349 3.02788 14.6349 2.52416C14.2833 2.70847 13.6325 3.16409 12.8888 3.22258C12.3916 2.44511 11.1428 1.82576 9.39676 2.52417C7.65076 3.22257 7.30156 5.08501 7.65076 6.01623C5.41583 6.01623 2.76187 3.68819 1.71425 2.52417C0.458718 4.31568 2.04711 6.0927 2.76187 6.71465C2.28537 6.85712 1.71425 6.71465 1.36504 6.36544C1.36504 8.35945 3.11107 9.15905 3.80949 9.50832H2.41266C2.41266 10.9051 4.04229 11.4871 4.8571 11.6035C4.29837 12.1623 2.04732 12.6671 0.666626 12.6671Z" fill="white"/>
</svg>
