<svg width="48" height="48" viewBox="0 0 48 48" fill="none" xmlns="http://www.w3.org/2000/svg">
<path fill-rule="evenodd" clip-rule="evenodd" d="M45.8802 14.2004C42.0146 5.60389 33.4221 0.0494995 23.9866 0.0494995C21.5068 0.0494995 19.0783 0.433138 16.7323 1.18261L18.7245 5.39076C20.4332 4.90514 22.1948 4.65424 23.9866 4.65424C27.5914 4.65424 31.039 5.6681 34.0081 7.46004L28.6741 26.4056L22.919 14.2819L17.8513 26.4607L14.1467 17.7827L11.8521 22.661L17.5564 36.0716L22.9417 24.1621L29.7213 38.6583L38.7922 11.5263C39.9452 12.886 40.9243 14.4141 41.6766 16.0868C43.7973 20.8048 43.9539 26.0657 42.1151 30.9008C40.7067 34.6023 38.2538 37.7124 35.0628 39.9204L37.055 44.1296C41.3191 41.3799 44.5852 37.3633 46.4224 32.5358C48.6981 26.5513 48.5053 20.0397 45.8802 14.2004Z" fill="white"/>
<path fill-rule="evenodd" clip-rule="evenodd" d="M31.2708 41.9639C21.6706 45.8521 10.6021 41.4729 6.32282 31.9564C4.2021 27.2372 4.04711 21.9774 5.88485 17.1428C7.56652 12.7221 10.7365 9.14524 14.8759 6.94539L12.9193 2.76746C7.68965 5.48152 3.68799 9.95947 1.57699 15.5079C-0.69872 21.4924 -0.505928 28.0018 2.11972 33.8433C6.1095 42.7193 14.8737 47.9882 24.0354 47.9861C27.1088 47.9861 30.2253 47.3855 33.2231 46.1359L31.2708 41.9639Z" fill="white"/>
</svg>
