<?xml version="1.0" encoding="utf-8"?>
<!-- Generator: Adobe Illustrator 27.4.1, SVG Export Plug-In . SVG Version: 6.00 Build 0)  -->
<svg version="1.1" id="Layer_1" xmlns="http://www.w3.org/2000/svg" xmlns:xlink="http://www.w3.org/1999/xlink" x="0px" y="0px"
	 viewBox="0 0 48 48" style="enable-background:new 0 0 48 48;" xml:space="preserve">
<style type="text/css">
	.st0{fill-rule:evenodd;clip-rule:evenodd;}
</style>
<path class="st0" d="M45.9,14.2C42,5.6,33.4,0,24,0c-2.5,0-4.9,0.4-7.3,1.1l2,4.2c1.7-0.5,3.5-0.7,5.3-0.7c3.6,0,7.1,1,10,2.8
	l-5.3,18.9l-5.8-12.1l-5.1,12.2l-3.7-8.7l-2.3,4.9l5.7,13.4l5.4-11.9l6.8,14.5l9.1-27.1c1.2,1.4,2.1,2.9,2.9,4.6
	c2.1,4.7,2.3,10,0.4,14.8c-1.4,3.7-3.9,6.8-7.1,9l2,4.2c4.3-2.7,7.5-6.8,9.4-11.6C48.7,26.6,48.5,20,45.9,14.2z"/>
<path class="st0" d="M31.3,42c-9.6,3.9-20.7-0.5-24.9-10C4.2,27.2,4,22,5.9,17.1c1.7-4.4,4.9-8,9-10.2l-2-4.2
	C7.7,5.5,3.7,10,1.6,15.5c-2.3,6-2.1,12.5,0.5,18.3C6.1,42.7,14.9,48,24,48c3.1,0,6.2-0.6,9.2-1.9L31.3,42z"/>
</svg>
