<svg width="60" height="60" viewBox="0 0 60 60" fill="none" xmlns="http://www.w3.org/2000/svg">
<path d="M33.75 43.75V40H38.75V33.75H42.5L38.75 26.25V22.5L28.75 16.25L17.5 22.5V34.375L22.5 38.75V43.75" stroke="white" stroke-miterlimit="10" stroke-linecap="round" stroke-linejoin="round"/>
<path d="M25 27.3525L27.5 25.9375L30 27.3525V30.1475L27.5 31.5625L25 30.1475V27.3525Z" stroke="white" stroke-miterlimit="10" stroke-linecap="round" stroke-linejoin="round"/>
<path d="M32.5 27.5162L33.75 26.1463L32.7975 24.5313L30.95 24.9725L28.8525 23.8488L28.4375 22.5H26.5625L26.1475 23.8488L24.05 24.9725L22.2025 24.5313L21.25 26.1463L22.5 27.5162V29.9838L21.25 31.3538L22.2025 32.9688L24.05 32.5275L26.1475 33.6513L26.5625 35H28.4375L28.8525 33.6513L30.95 32.5275L32.7975 32.9688L33.75 31.3538L32.5 29.9838V27.5162Z" stroke="white" stroke-miterlimit="10" stroke-linecap="round" stroke-linejoin="round"/>
<rect x="0.5" y="0.5" width="59" height="59" rx="29.5" stroke="white"/>
</svg>
