<svg width="18" height="18" viewBox="0 0 18 18" fill="none" xmlns="http://www.w3.org/2000/svg">
<path d="M5.92404 7.09473L1.33337 16.6667L10.9634 12.0547" stroke="white" stroke-width="0.75" stroke-miterlimit="10" stroke-linecap="round" stroke-linejoin="round"/>
<path d="M10.9633 12.0547L7.28662 10.7507L5.92395 7.09473L9.60129 8.39873L10.9633 12.0547Z" stroke="white" stroke-width="0.75" stroke-miterlimit="10" stroke-linecap="round" stroke-linejoin="round"/>
<path d="M9.33329 6.33334L8.66663 5.33334L9.33329 4.33334L8.66663 3.33334L9.33329 2.33334L8.66663 1.33334" stroke="white" stroke-width="0.75" stroke-miterlimit="10" stroke-linecap="round" stroke-linejoin="round"/>
<path d="M11.3334 9L12.6667 8.33334L13.6667 9L14.6667 8.33334L15.6667 9L16.6667 8.33334" stroke="white" stroke-width="0.75" stroke-miterlimit="10" stroke-linecap="round" stroke-linejoin="round"/>
<path d="M13.15 6.764L13.8187 5.76533L14.998 5.99867L15.6667 5" stroke="white" stroke-width="0.75" stroke-miterlimit="10" stroke-linecap="round" stroke-linejoin="round"/>
<path d="M10.816 4.78667L11.1447 3.63067L12.338 3.48934L12.6667 2.33334" stroke="white" stroke-width="0.75" stroke-miterlimit="10" stroke-linecap="round" stroke-linejoin="round"/>
<path d="M6.33618 3.99381L6.67267 4.33026L6.33618 4.66675" stroke="white" stroke-width="0.75" stroke-linecap="round" stroke-linejoin="round"/>
<path d="M6.33612 3.99381L5.99963 4.33026L6.33612 4.66675" stroke="white" stroke-width="0.75" stroke-linecap="round" stroke-linejoin="round"/>
<path d="M11.3365 6.32715L11.6731 6.6636L11.3365 7.00009" stroke="white" stroke-width="0.75" stroke-linecap="round" stroke-linejoin="round"/>
<path d="M11.3366 6.32715L11.0001 6.6636L11.3366 7.00009" stroke="white" stroke-width="0.75" stroke-linecap="round" stroke-linejoin="round"/>
<path d="M14.3365 3.32097L14.673 3.65741L14.3365 3.9939" stroke="white" stroke-width="0.75" stroke-linecap="round" stroke-linejoin="round"/>
<path d="M14.3365 3.32097L14 3.65741L14.3365 3.9939" stroke="white" stroke-width="0.75" stroke-linecap="round" stroke-linejoin="round"/>
<path d="M13.9958 10.3337L14.3324 10.6701L13.9958 11.0066" stroke="white" stroke-width="0.75" stroke-linecap="round" stroke-linejoin="round"/>
<path d="M13.9959 10.3337L13.6594 10.6701L13.9959 11.0066" stroke="white" stroke-width="0.75" stroke-linecap="round" stroke-linejoin="round"/>
</svg>
