<svg width="16" height="16" viewBox="0 0 16 16" fill="none" xmlns="http://www.w3.org/2000/svg">
<path d="M9 0.666748C7.34313 0.666748 6 2.00989 6 3.66675V6.00008H4.33333C4.14924 6.00008 4 6.14932 4 6.33342V9.00008C4 9.18415 4.14924 9.33342 4.33333 9.33342H6V15.0001C6 15.1841 6.14924 15.3334 6.33333 15.3334H9C9.18407 15.3334 9.33333 15.1841 9.33333 15.0001V9.33342H11C11.1529 9.33342 11.2863 9.22935 11.3234 9.08095L11.9901 6.41426C12.0149 6.31468 11.9926 6.20918 11.9294 6.12827C11.8662 6.04738 11.7693 6.00008 11.6667 6.00008H9.33333V5.00008C9.33333 4.44779 9.78107 4.00008 10.3333 4.00008H11.6667C11.8507 4.00008 12 3.85084 12 3.66675V1.00008C12 0.815988 11.8507 0.666748 11.6667 0.666748H9Z" fill="white"/>
</svg>
