<svg width="100" height="100" viewBox="0 0 100 100" fill="none" xmlns="http://www.w3.org/2000/svg">
<path d="M73.7507 73.6466C83.423 67.6479 89.8467 57.0596 89.8467 44.9979C89.8467 26.2965 74.4033 11.136 55.353 11.136C36.3027 11.136 20.8594 26.2965 20.8594 44.9979C20.8594 46.3316 20.9379 47.6472 21.0907 48.9409L14.7131 66.2276C14.3314 67.2622 15.097 68.3609 16.1999 68.3609H25.4156V76.8789C25.4156 80.5986 28.431 83.6142 32.1508 83.6142H42.4517V97.6789H73.7507V73.6466Z" stroke="white" stroke-linecap="round" stroke-linejoin="round"/>
<path d="M14.7131 67.3267C14.5872 66.9891 14.5742 66.6041 14.7131 66.2277L21.0907 48.9411C20.9379 47.6474 20.8594 46.3317 20.8594 44.9981C20.8594 26.2966 36.3026 11.1361 55.353 11.1361C67.1146 11.1361 77.501 16.9149 83.7273 25.7379C79.243 12.1479 66.2433 2.32104 50.906 2.32104C31.8556 2.32104 16.4123 17.4815 16.4123 36.1831C16.4123 37.5167 16.4908 38.8324 16.6436 40.1261L10.266 57.4127C10.0602 57.9704 10.1879 58.5467 10.5221 58.9597L14.7131 67.3267Z" stroke="white" stroke-linecap="round" stroke-linejoin="round"/>
<path d="M38.0046 83.6147V88.8644L42.4516 97.6794V83.6147H38.0046Z" stroke="white" stroke-linecap="round" stroke-linejoin="round"/>
</svg>
