<svg width="16" height="16" viewBox="0 0 16 16" fill="none" xmlns="http://www.w3.org/2000/svg">
<g clip-path="url(#clip0_60_2526)">
<path fill-rule="evenodd" clip-rule="evenodd" d="M5 0.5C2.51472 0.5 0.5 2.51472 0.5 5V11C0.5 13.4853 2.51472 15.5 5 15.5H11C13.4853 15.5 15.5 13.4853 15.5 11V5C15.5 2.51472 13.4853 0.5 11 0.5H5ZM1.5 5C1.5 3.067 3.06701 1.5 5 1.5H11C12.933 1.5 14.5 3.06701 14.5 5V11C14.5 12.933 12.933 14.5 11 14.5H5C3.067 14.5 1.5 12.933 1.5 11V5ZM13 4.16667C13 4.62691 12.6269 5 12.1667 5C11.7064 5 11.3333 4.62691 11.3333 4.16667C11.3333 3.70643 11.7064 3.33333 12.1667 3.33333C12.6269 3.33333 13 3.70643 13 4.16667ZM8 5.16667C6.43519 5.16667 5.16667 6.43519 5.16667 8C5.16667 9.5648 6.43519 10.8333 8 10.8333C9.5648 10.8333 10.8333 9.5648 10.8333 8C10.8333 6.43519 9.5648 5.16667 8 5.16667ZM4.16667 8C4.16667 5.88291 5.88291 4.16667 8 4.16667C10.1171 4.16667 11.8333 5.88291 11.8333 8C11.8333 10.1171 10.1171 11.8333 8 11.8333C5.88291 11.8333 4.16667 10.1171 4.16667 8Z" fill="white"/>
</g>
<defs>
<clipPath id="clip0_60_2526">
<rect width="16" height="16" fill="white"/>
</clipPath>
</defs>
</svg>
