<svg width="16" height="16" viewBox="0 0 16 16" fill="none" xmlns="http://www.w3.org/2000/svg">
<g clip-path="url(#clip0_60_2528)">
<path fill-rule="evenodd" clip-rule="evenodd" d="M2.33329 4.00008C3.25377 4.00008 3.99996 3.25389 3.99996 2.33341C3.99996 1.41294 3.25377 0.666748 2.33329 0.666748C1.41282 0.666748 0.666626 1.41294 0.666626 2.33341C0.666626 3.25389 1.41282 4.00008 2.33329 4.00008ZM3.99996 15.3334V5.33342H0.666626V15.3334H3.99996ZM5.33329 5.33342H8.33329V6.63085C8.81096 6.00331 9.83049 5.33342 11.6666 5.33342C14.5535 5.33342 15.3333 8.21368 15.3333 10.0001V15.3334H12V10.0001C12 9.33342 11.6666 8.00008 10.3333 8.00008C9.38649 8.00008 8.71983 8.67241 8.33329 9.30095V15.3334H5.33329V5.33342Z" fill="white"/>
</g>
<defs>
<clipPath id="clip0_60_2528">
<rect width="16" height="16" fill="white"/>
</clipPath>
</defs>
</svg>
