<svg width="377" height="475" viewBox="0 0 377 475" fill="none" xmlns="http://www.w3.org/2000/svg">
<path d="M420.313 98.2903L466.293 217.237L458.297 323.19L374.335 433.142L234.397 474.123L145.436 463.128L45.4805 385.163L1.5 306.198V155.265L89.461 42.3151L222.402 1.33331L315.36 15.3271L420.313 98.2903ZM420.313 98.2903L394.325 196.247L420.313 329.187L374.335 430.142M316.36 15.3271L307.365 75.3005M307.365 75.3005L272.38 186.252L307.365 308.197L316.36 414.15M307.365 75.3005L394.325 195.247L274.378 184.252M316.36 414.15L232.898 473.123M316.36 414.15L194.415 396.157L307.365 307.197L169.425 259.218L271.38 185.252L169.425 115.282L307.365 76.2995M233.397 472.125L195.413 397.402L168.427 260.907V113.452L188.417 11.8286L314.862 17.3261M90.4607 42.3145L48.4793 200.245L79.4657 327.188L90.4607 420.147L4.49833 310.197M419.315 97.2903L305.365 74.3006L189.417 11.3285L80.4648 82.297L2.4995 154.265M80.465 83.2963L167.427 115.282L49.4788 197.245L167.427 260.218L80.465 331.187L194.415 395.158L91.4602 420.647L232.897 472.123M2.4995 155.265L48.479 199.245L2.4995 306.198L78.4657 330.187M396.325 195.247L464.295 218.237L421.313 330.187L456.298 324.19M394.325 197.247L307.365 304.198L420.315 330.187L315.362 414.15L375.335 433.142" stroke="white" stroke-opacity="0.05" stroke-width="1.66667" stroke-linecap="round" stroke-linejoin="round"/>
</svg>
