<svg width="598" height="619" viewBox="0 0 598 619" fill="none" xmlns="http://www.w3.org/2000/svg">
<g clip-path="url(#clip0_229_969)">
<path d="M120.709 46.9709L569.642 174.398L491.225 450.664L322.875 402.879L246.074 459.824L210.642 371.023L42.2928 323.238L120.709 46.9709Z" stroke="white" stroke-opacity="0.1" stroke-linecap="round" stroke-linejoin="round"/>
<path d="M193.953 405.847L49.7762 364.924L42.293 323.238L210.643 371.023L193.953 405.847Z" stroke="white" stroke-opacity="0.1" stroke-linecap="round" stroke-linejoin="round"/>
<path d="M462.957 482.203L318.781 441.279L322.875 402.879L491.187 450.654L462.957 482.203Z" stroke="white" stroke-opacity="0.1" stroke-linecap="round" stroke-linejoin="round"/>
<path d="M128.192 88.6579L541.374 205.937L569.603 174.387L120.709 46.9709L128.192 88.6579Z" stroke="white" stroke-opacity="0.1" stroke-linecap="round" stroke-linejoin="round"/>
<path d="M541.374 205.937L569.604 174.387" stroke="white" stroke-opacity="0.1" stroke-linecap="round" stroke-linejoin="round"/>
<path d="M128.192 88.6579L120.709 46.9709L42.2928 323.238L49.776 364.923L128.192 88.6579Z" stroke="white" stroke-opacity="0.1" stroke-linecap="round" stroke-linejoin="round"/>
<path d="M541.336 205.926L569.604 174.387L491.187 450.654L462.919 482.192L541.336 205.926Z" stroke="white" stroke-opacity="0.1" stroke-linecap="round" stroke-linejoin="round"/>
<path d="M318.782 441.279L232.352 508.171L246.075 459.824L322.876 402.88L318.782 441.279Z" stroke="white" stroke-opacity="0.1" stroke-linecap="round" stroke-linejoin="round"/>
<path d="M232.352 508.171L193.953 405.847L210.643 371.023L246.075 459.824L232.352 508.171Z" stroke="white" stroke-opacity="0.1" stroke-linecap="round" stroke-linejoin="round"/>
</g>
<defs>
<clipPath id="clip0_229_969">
<rect width="500" height="500" fill="white" transform="translate(116.529 0.663086) rotate(15.8463)"/>
</clipPath>
</defs>
</svg>
