<svg width="536" height="603" viewBox="0 0 536 603" fill="none" xmlns="http://www.w3.org/2000/svg">
<g clip-path="url(#clip0_229_986)">
<path d="M434.94 228.714L501.852 117.373L455.221 93.7319L388.299 205.113L434.94 228.714Z" stroke="white" stroke-opacity="0.1" stroke-linecap="round" stroke-linejoin="round"/>
<path d="M147.232 509.129L482.601 429.533L436.023 406.194L100.752 485.765L147.232 509.129Z" stroke="white" stroke-opacity="0.1" stroke-linecap="round" stroke-linejoin="round"/>
<path d="M482.602 429.534L434.94 228.714L388.299 205.113L436.023 406.194L482.602 429.534Z" stroke="white" stroke-opacity="0.1" stroke-linecap="round" stroke-linejoin="round"/>
<path d="M31.4229 194.391L455.152 93.8252L388.239 205.165L435.901 405.984L100.532 485.579L31.4229 194.391Z" stroke="white" stroke-opacity="0.1" stroke-linecap="round" stroke-linejoin="round"/>
<path d="M78.1235 217.938L501.854 117.372L434.941 228.712L482.603 429.531L147.233 509.127L78.1235 217.938Z" stroke="white" stroke-opacity="0.1" stroke-linecap="round" stroke-linejoin="round"/>
<path d="M31.4229 194.391L455.152 93.8252L501.852 117.372L78.1226 217.939L31.4229 194.391Z" stroke="white" stroke-opacity="0.1" stroke-linecap="round" stroke-linejoin="round"/>
</g>
<defs>
<clipPath id="clip0_229_986">
<rect width="500" height="500" fill="white" transform="translate(0 116.124) rotate(-13.3513)"/>
</clipPath>
</defs>
</svg>
