<svg width="124" height="200" viewBox="0 0 124 200" fill="none" xmlns="http://www.w3.org/2000/svg">
<path d="M-70.1191 137.979H23.9215V157.728H-70.1191V137.979Z" stroke="white" stroke-opacity="0.1" stroke-linecap="round" stroke-linejoin="round"/>
<path d="M-51.1538 109.767H42.8869V129.515H-51.1538V109.767Z" stroke="white" stroke-opacity="0.1" stroke-linecap="round" stroke-linejoin="round"/>
<path d="M-32.5024 81.5547H61.5382V101.303H-32.5024V81.5547Z" stroke="white" stroke-opacity="0.1" stroke-linecap="round" stroke-linejoin="round"/>
<path d="M-13.5381 53.344H80.5026V73.0927H-13.5381V53.344Z" stroke="white" stroke-opacity="0.1" stroke-linecap="round" stroke-linejoin="round"/>
<path d="M24.0786 16.6667H117.963V36.4154H24.0786V16.6667Z" stroke="white" stroke-opacity="0.1" stroke-linecap="round" stroke-linejoin="round"/>
<path d="M5.27002 44.8787H99.3107V64.6273H5.27002V44.8787Z" stroke="white" stroke-opacity="0.1" stroke-linecap="round" stroke-linejoin="round"/>
<path d="M-13.5381 73.0913H80.5026V92.84H-13.5381V73.0913Z" stroke="white" stroke-opacity="0.1" stroke-linecap="round" stroke-linejoin="round"/>
<path d="M-32.5024 101.303H61.5382V121.052H-32.5024V101.303Z" stroke="white" stroke-opacity="0.1" stroke-linecap="round" stroke-linejoin="round"/>
<path d="M-51.3105 129.515H42.7301V149.264H-51.3105V129.515Z" stroke="white" stroke-opacity="0.1" stroke-linecap="round" stroke-linejoin="round"/>
<path d="M5.27002 25.1299H99.3107V44.8785H5.27002V25.1299Z" stroke="white" stroke-opacity="0.1" stroke-linecap="round" stroke-linejoin="round"/>
<path d="M-70.1191 137.979H23.9213L42.73 129.515H-51.311L-70.1191 137.979Z" stroke="white" stroke-opacity="0.1" stroke-linecap="round" stroke-linejoin="round"/>
<path d="M-51.1543 109.767H42.8866L61.6946 101.303H-32.3462L-51.1543 109.767Z" stroke="white" stroke-opacity="0.1" stroke-linecap="round" stroke-linejoin="round"/>
<path d="M-32.5029 81.5546H61.538L80.346 73.0913H-13.6948L-32.5029 81.5546Z" stroke="white" stroke-opacity="0.1" stroke-linecap="round" stroke-linejoin="round"/>
<path d="M-13.5381 53.3426H80.5026L99.3106 44.8789H5.26998L-13.5381 53.3426Z" stroke="white" stroke-opacity="0.1" stroke-linecap="round" stroke-linejoin="round"/>
<path d="M5.27002 25.1304H99.3107L118.119 16.6667H24.078L5.27002 25.1304Z" stroke="white" stroke-opacity="0.1" stroke-linejoin="round"/>
<path d="M118.119 16.6667L99.3107 25.1304V44.8789L80.5027 53.3426V73.0914L61.5381 81.5547V101.303L42.8867 109.767L42.7301 129.515L23.9214 137.979V157.728L42.8867 149.421L118.119 36.4153V16.6667Z" stroke="white" stroke-opacity="0.1" stroke-linecap="round" stroke-linejoin="round"/>
<path d="M24.078 16.6667L5.27 25.1304V44.8789L-13.538 53.3426V73.0914L-32.5029 81.5547V101.303L-51.1543 109.767L-51.311 129.515L-70.1191 137.979V157.728L-51.1543 149.421L24.078 36.4153V16.6667Z" stroke="white" stroke-opacity="0.1" stroke-linecap="round" stroke-linejoin="round"/>
</svg>
